solid OpenSCAD_Model
  facet normal -1 0 0
    outer loop
      vertex -59.5 12.5 1
      vertex -59.5 11 8
      vertex -59.5 12.5 8
    endloop
  endfacet
  facet normal -1 0 0
    outer loop
      vertex -59.5 11 8
      vertex -59.5 -11 8
      vertex -59.5 11 17
    endloop
  endfacet
  facet normal -1 0 0
    outer loop
      vertex -59.5 12.5 1
      vertex -59.5 -11 8
      vertex -59.5 11 8
    endloop
  endfacet
  facet normal -1 0 0
    outer loop
      vertex -59.5 -12.5 1
      vertex -59.5 -11 8
      vertex -59.5 12.5 1
    endloop
  endfacet
  facet normal -1 -0 0
    outer loop
      vertex -59.5 -11 8
      vertex -59.5 -12.5 1
      vertex -59.5 -12.5 8
    endloop
  endfacet
  facet normal -1 -0 0
    outer loop
      vertex -59.5 11 17
      vertex -59.5 -11 8
      vertex -59.5 -11 17
    endloop
  endfacet
  facet normal -0 0 1
    outer loop
      vertex -59.5 12.5 8
      vertex 59.5 11 8
      vertex 59.5 12.5 8
    endloop
  endfacet
  facet normal 0 0 1
    outer loop
      vertex 59.5 11 8
      vertex -59.5 12.5 8
      vertex -59.5 11 8
    endloop
  endfacet
  facet normal -0 0 1
    outer loop
      vertex -59.5 -11 8
      vertex 59.5 -12.5 8
      vertex 59.5 -11 8
    endloop
  endfacet
  facet normal 0 0 1
    outer loop
      vertex 59.5 -12.5 8
      vertex -59.5 -11 8
      vertex -59.5 -12.5 8
    endloop
  endfacet
  facet normal 1 0 0
    outer loop
      vertex 59.5 11 17
      vertex 59.5 4 6
      vertex 59.5 11 8
    endloop
  endfacet
  facet normal 1 0 0
    outer loop
      vertex 59.5 11 17
      vertex 59.5 -4 6
      vertex 59.5 4 6
    endloop
  endfacet
  facet normal 1 -0 0
    outer loop
      vertex 59.5 -11 8
      vertex 59.5 -4 6
      vertex 59.5 -11 17
    endloop
  endfacet
  facet normal 1 -0 0
    outer loop
      vertex 59.5 -11 17
      vertex 59.5 -4 6
      vertex 59.5 11 17
    endloop
  endfacet
  facet normal 1 -0 0
    outer loop
      vertex 59.5 11 8
      vertex 59.5 12.5 1
      vertex 59.5 12.5 8
    endloop
  endfacet
  facet normal 1 0 0
    outer loop
      vertex 59.5 4 3
      vertex 59.5 11 8
      vertex 59.5 4 6
    endloop
  endfacet
  facet normal 1 0 0
    outer loop
      vertex 59.5 11 8
      vertex 59.5 4 3
      vertex 59.5 12.5 1
    endloop
  endfacet
  facet normal 1 -0 0
    outer loop
      vertex 59.5 -4 3
      vertex 59.5 12.5 1
      vertex 59.5 4 3
    endloop
  endfacet
  facet normal 1 0 0
    outer loop
      vertex 59.5 -4 6
      vertex 59.5 -11 8
      vertex 59.5 -4 3
    endloop
  endfacet
  facet normal 1 0 0
    outer loop
      vertex 59.5 -12.5 1
      vertex 59.5 -11 8
      vertex 59.5 -12.5 8
    endloop
  endfacet
  facet normal 1 0 0
    outer loop
      vertex 59.5 -4 3
      vertex 59.5 -12.5 1
      vertex 59.5 12.5 1
    endloop
  endfacet
  facet normal 1 0 0
    outer loop
      vertex 59.5 -11 8
      vertex 59.5 -12.5 1
      vertex 59.5 -4 3
    endloop
  endfacet
  facet normal 0 0 -1
    outer loop
      vertex -59.5 -12.5 1
      vertex 59.5 12.5 1
      vertex 59.5 -12.5 1
    endloop
  endfacet
  facet normal -0 0 -1
    outer loop
      vertex 59.5 12.5 1
      vertex -59.5 -12.5 1
      vertex -59.5 12.5 1
    endloop
  endfacet
  facet normal 0 -1 0
    outer loop
      vertex -59.5 -12.5 1
      vertex 59.5 -12.5 8
      vertex -59.5 -12.5 8
    endloop
  endfacet
  facet normal 0 -1 -0
    outer loop
      vertex 59.5 -12.5 8
      vertex -59.5 -12.5 1
      vertex 59.5 -12.5 1
    endloop
  endfacet
  facet normal 0 1 -0
    outer loop
      vertex 59.5 12.5 1
      vertex -59.5 12.5 8
      vertex 59.5 12.5 8
    endloop
  endfacet
  facet normal 0 1 0
    outer loop
      vertex -59.5 12.5 8
      vertex 59.5 12.5 1
      vertex -59.5 12.5 1
    endloop
  endfacet
  facet normal 1 -0 0
    outer loop
      vertex -57.5 -9 8
      vertex -57.5 9 3
      vertex -57.5 9 8
    endloop
  endfacet
  facet normal 1 0 0
    outer loop
      vertex -57.5 9 3
      vertex -57.5 -9 8
      vertex -57.5 -9 3
    endloop
  endfacet
  facet normal -1 0 0
    outer loop
      vertex 57.5 -4 3
      vertex 57.5 -9 3
      vertex 57.5 -4 6
    endloop
  endfacet
  facet normal -1 0 0
    outer loop
      vertex 57.5 4 6
      vertex 57.5 9 3
      vertex 57.5 4 3
    endloop
  endfacet
  facet normal -1 0 0
    outer loop
      vertex 57.5 9 3
      vertex 57.5 4 6
      vertex 57.5 9 8
    endloop
  endfacet
  facet normal -1 0 0
    outer loop
      vertex 57.5 -4 6
      vertex 57.5 9 8
      vertex 57.5 4 6
    endloop
  endfacet
  facet normal -1 0 0
    outer loop
      vertex 57.5 -4 6
      vertex 57.5 -9 8
      vertex 57.5 9 8
    endloop
  endfacet
  facet normal -1 0 0
    outer loop
      vertex 57.5 -9 8
      vertex 57.5 -4 6
      vertex 57.5 -9 3
    endloop
  endfacet
  facet normal 0 -1 0
    outer loop
      vertex -57.5 9 3
      vertex 57.5 9 8
      vertex -57.5 9 8
    endloop
  endfacet
  facet normal 0 -1 -0
    outer loop
      vertex 57.5 9 8
      vertex -57.5 9 3
      vertex 57.5 9 3
    endloop
  endfacet
  facet normal -0 0 1
    outer loop
      vertex -57.5 9 3
      vertex 57.5 4 3
      vertex 57.5 9 3
    endloop
  endfacet
  facet normal 0 0 1
    outer loop
      vertex 57.5 4 3
      vertex -57.5 9 3
      vertex 57.5 -4 3
    endloop
  endfacet
  facet normal 0 0 1
    outer loop
      vertex -57.5 -9 3
      vertex 57.5 -4 3
      vertex -57.5 9 3
    endloop
  endfacet
  facet normal 0 0 1
    outer loop
      vertex 57.5 -4 3
      vertex -57.5 -9 3
      vertex 57.5 -9 3
    endloop
  endfacet
  facet normal -0 0 1
    outer loop
      vertex 57.5 4 3
      vertex 59.5 -4 3
      vertex 59.5 4 3
    endloop
  endfacet
  facet normal 0 0 1
    outer loop
      vertex 59.5 -4 3
      vertex 57.5 4 3
      vertex 57.5 -4 3
    endloop
  endfacet
  facet normal 0 1 -0
    outer loop
      vertex 57.5 -9 3
      vertex -57.5 -9 8
      vertex 57.5 -9 8
    endloop
  endfacet
  facet normal 0 1 0
    outer loop
      vertex -57.5 -9 8
      vertex 57.5 -9 3
      vertex -57.5 -9 3
    endloop
  endfacet
  facet normal 0 0 1
    outer loop
      vertex 59.5 11 17
      vertex 57.5 9 17
      vertex 59.5 -11 17
    endloop
  endfacet
  facet normal 0 0 1
    outer loop
      vertex 59.5 11 17
      vertex -57.5 9 17
      vertex 57.5 9 17
    endloop
  endfacet
  facet normal 0 0 1
    outer loop
      vertex -57.5 9 17
      vertex -59.5 11 17
      vertex -57.5 -9 17
    endloop
  endfacet
  facet normal -0 0 1
    outer loop
      vertex -59.5 11 17
      vertex -57.5 9 17
      vertex 59.5 11 17
    endloop
  endfacet
  facet normal -0 0 1
    outer loop
      vertex 57.5 -9 17
      vertex 59.5 -11 17
      vertex 57.5 9 17
    endloop
  endfacet
  facet normal -0 0 1
    outer loop
      vertex -57.5 -9 17
      vertex 59.5 -11 17
      vertex 57.5 -9 17
    endloop
  endfacet
  facet normal 0 0 1
    outer loop
      vertex -57.5 -9 17
      vertex -59.5 -11 17
      vertex 59.5 -11 17
    endloop
  endfacet
  facet normal 0 0 1
    outer loop
      vertex -59.5 -11 17
      vertex -57.5 -9 17
      vertex -59.5 11 17
    endloop
  endfacet
  facet normal 0 1 -0
    outer loop
      vertex 57.5 -9 8
      vertex -57.5 -9 17
      vertex 57.5 -9 17
    endloop
  endfacet
  facet normal 0 1 0
    outer loop
      vertex -57.5 -9 17
      vertex 57.5 -9 8
      vertex -57.5 -9 8
    endloop
  endfacet
  facet normal 0 -1 0
    outer loop
      vertex -59.5 -11 8
      vertex 59.5 -11 17
      vertex -59.5 -11 17
    endloop
  endfacet
  facet normal 0 -1 -0
    outer loop
      vertex 59.5 -11 17
      vertex -59.5 -11 8
      vertex 59.5 -11 8
    endloop
  endfacet
  facet normal 0 -1 0
    outer loop
      vertex -57.5 9 8
      vertex 57.5 9 17
      vertex -57.5 9 17
    endloop
  endfacet
  facet normal 0 -1 -0
    outer loop
      vertex 57.5 9 17
      vertex -57.5 9 8
      vertex 57.5 9 8
    endloop
  endfacet
  facet normal 0 1 -0
    outer loop
      vertex 59.5 11 8
      vertex -59.5 11 17
      vertex 59.5 11 17
    endloop
  endfacet
  facet normal 0 1 0
    outer loop
      vertex -59.5 11 17
      vertex 59.5 11 8
      vertex -59.5 11 8
    endloop
  endfacet
  facet normal 1 -0 0
    outer loop
      vertex -57.5 -9 17
      vertex -57.5 9 8
      vertex -57.5 9 17
    endloop
  endfacet
  facet normal 1 0 0
    outer loop
      vertex -57.5 9 8
      vertex -57.5 -9 17
      vertex -57.5 -9 8
    endloop
  endfacet
  facet normal -1 0 0
    outer loop
      vertex 57.5 -9 8
      vertex 57.5 9 17
      vertex 57.5 9 8
    endloop
  endfacet
  facet normal -1 -0 0
    outer loop
      vertex 57.5 9 17
      vertex 57.5 -9 8
      vertex 57.5 -9 17
    endloop
  endfacet
  facet normal 0 0 -1
    outer loop
      vertex 57.5 -4 6
      vertex 59.5 4 6
      vertex 59.5 -4 6
    endloop
  endfacet
  facet normal -0 0 -1
    outer loop
      vertex 59.5 4 6
      vertex 57.5 -4 6
      vertex 57.5 4 6
    endloop
  endfacet
  facet normal 0 1 -0
    outer loop
      vertex 59.5 -4 3
      vertex 57.5 -4 6
      vertex 59.5 -4 6
    endloop
  endfacet
  facet normal 0 1 0
    outer loop
      vertex 57.5 -4 6
      vertex 59.5 -4 3
      vertex 57.5 -4 3
    endloop
  endfacet
  facet normal 0 -1 0
    outer loop
      vertex 57.5 4 3
      vertex 59.5 4 6
      vertex 57.5 4 6
    endloop
  endfacet
  facet normal 0 -1 -0
    outer loop
      vertex 59.5 4 6
      vertex 57.5 4 3
      vertex 59.5 4 3
    endloop
  endfacet
endsolid OpenSCAD_Model
